# xmcd
#
# Track frame offsets:
#	150
#	18299
#	35848
#	54447
#	72746
#	89920
#	113732
#	132706
#	153968
#	168067
#	198291
#	211190
#	226163
#	247237
#	265461
#
# Disc length: 3865 seconds
#
# Revision: 0
# Processed by: cddbd v1.5.2PL0 Copyright (c) Steve Scherf et al.
# Submitted via: EasyCDDAExtractor 11.1.0.1
#
DISCID=db0f170f
DTITLE=Chris O'Connor - Soup's Gone Bad
DYEAR=2011
DGENRE=Blues
TTITLE0=Future Blues
TTITLE1=Bad Luck Blues
TTITLE2=Soup's Gone Bad
TTITLE3=Pony Blues
TTITLE4=Up The River
TTITLE5=When Your Way Gets Dark
TTITLE6=Train Won't Stop
TTITLE7=Talking To The Kookaburra Blues
TTITLE8=Who's Been Here?
TTITLE9=Market Town
TTITLE10=West Coast Blues
TTITLE11=Stocking Feet Blues
TTITLE12=Carbon Habit
TTITLE13=People Get Ready/I Am The Light Of The World
TTITLE14=One Kind Favour
EXTD=
EXTT0=
EXTT1=
EXTT2=
EXTT3=
EXTT4=
EXTT5=
EXTT6=
EXTT7=
EXTT8=
EXTT9=
EXTT10=
EXTT11=
EXTT12=
EXTT13=
EXTT14=
PLAYORDER=
